<svg width="120" height="227" version="1.1" xmlns="http://www.w3.org/2000/svg" xmlns:xlink="http://www.w3.org/1999/xlink"><rect id="backgroundrect" width="100%" height="100%" x="0" y="0" fill="none" stroke="none"/>
    <!-- Generator: Sketch 46.2 (44496) - http://www.bohemiancoding.com/sketch -->
    <title>Group 3</title>
    <desc>Created with Sketch.</desc>
    <defs/>
    
<g class="currentLayer" style=""><title>Layer 1</title><g id="Page-1" stroke="#000000" stroke-width="1" fill="#f2bbbf" fill-rule="evenodd" class="selected" stroke-opacity="1" fill-opacity="1">
        <g id="1-panel_example_1-copy-2" stroke="#000000" stroke-opacity="1" fill="#f2bbbf" fill-opacity="1">
            <g id="Group-3" stroke="#000000" stroke-opacity="1" fill="#f2bbbf" fill-opacity="1">
                <rect id="Rectangle-3" fill="#f2bbbf" x="0" y="0" width="120" height="227" stroke="#000000" stroke-opacity="1" fill-opacity="1"/>
                <g id="noun_1258010_cc" fill-rule="nonzero" fill="#f2bbbf" stroke="#000000" stroke-opacity="1" fill-opacity="1">
                    <path d="M111,218 L111,10 L10,10 L10,218 L11.618589401245117,218 L111,218 zM13.23717975616455,13.253570556640625 L107.7628173828125,13.253570556640625 L107.7628173828125,214.74644470214844 L13.23717975616455,214.74644470214844 L13.23717975616455,13.253570556640625 z" id="Shape" stroke="#000000" stroke-opacity="1" fill="#f2bbbf" fill-opacity="1"/>
                    <path d="M95.5,122 C91.91060638427734,122 89,124.91061401367188 89,128.5 C89,132.08938598632812 91.91060638427734,135 95.5,135 C99.08939361572266,135 102,132.08938598632812 102,128.5 C102,124.91061401367188 99.08939361572266,122 95.5,122 zM95.5,132.35879516601562 C93.3685531616211,132.3561553955078 91.64384460449219,130.63145446777344 91.64120483398438,128.5 C91.64384460449219,126.36854553222656 93.3685531616211,124.64384460449219 95.5,124.64120483398438 C97.6314468383789,124.64384460449219 99.35615539550781,126.36854553222656 99.35879516601562,128.5 C99.35615539550781,130.62881469726562 97.6314468383789,132.3561553955078 95.5,132.35879516601562 z" id="Shape" stroke="#000000" stroke-opacity="1" fill="#f2bbbf" fill-opacity="1"/>
                </g>
            </g>
        </g>
    </g></g></svg>