<svg width="165" height="46" version="1.1" xmlns="http://www.w3.org/2000/svg" xmlns:xlink="http://www.w3.org/1999/xlink" style=""><rect id="backgroundrect" width="100%" height="100%" x="0" y="0" fill="none" stroke="none"/>
    <!-- Generator: Sketch 46.2 (44496) - http://www.bohemiancoding.com/sketch -->
    <title>Group 13</title>
    <desc>Created with Sketch.</desc>
    <defs/>
    
<g class="currentLayer" style=""><title>Layer 1</title><g id="Page-1" stroke="#400711" stroke-width="1" fill="#400711" fill-rule="evenodd" class="selected" fill-opacity="1" stroke-opacity="1">
        <g id="1-panel_example_1-copy-2" fill="#400711" stroke="#400711">
            <g id="Group-13" fill="#400711" stroke="#400711">
                <path d="M45.364637076854706,29.360000610351562 C44.97796410322189,30.626672744750977 44.29131096601486,31.583330154418945 43.304639518260956,32.22999954223633 C42.31796044111252,32.876670837402344 41.13798302412033,33.20000076293945 39.76463860273361,33.20000076293945 C38.47129601240158,33.20000076293945 37.34464806318283,32.92667007446289 36.38464134931564,32.380001068115234 C35.424634635448456,31.833330154418945 34.68797081708908,31.050004959106445 34.174634635448456,30.030000686645508 C33.66129845380783,29.009994506835938 33.40463799238205,27.800006866455078 33.40463799238205,26.399999618530273 C33.40463799238205,24.99999237060547 33.66129845380783,23.79000473022461 34.174634635448456,22.770000457763672 C34.68797081708908,21.7499942779541 35.4213005900383,20.9666690826416 36.374639213085175,20.420000076293945 C37.32797020673752,19.87333106994629 38.44463127851486,19.600000381469727 39.72463768720627,19.600000381469727 C41.097974479198456,19.600000381469727 42.261304557323456,19.88666343688965 43.21464318037033,20.459999084472656 C44.167974174022675,21.033336639404297 44.82463616132736,21.886661529541016 45.184636771678925,23.020000457763672 L42.684636771678925,24.079999923706055 C42.47130364179611,23.2933292388916 42.13796776533127,22.726669311523438 41.684636771678925,22.3799991607666 C41.23130577802658,22.0333309173584 40.61797875165939,21.860000610351562 39.84463280439377,21.860000610351562 C38.72463768720627,21.860000610351562 37.847974479198456,22.25333023071289 37.21464318037033,23.040000915527344 C36.58129662275314,23.826669692993164 36.26463860273361,24.946659088134766 36.26463860273361,26.399999618530273 C36.26463860273361,27.85334014892578 36.571302115917206,28.973329544067383 37.184636771678925,29.760000228881836 C37.79797142744064,30.54667091369629 38.66463249921799,30.940000534057617 39.78463524580002,30.940000534057617 C41.39797753095627,30.940000534057617 42.41129845380783,30.16000747680664 42.82463616132736,28.600000381469727 L45.364637076854706,29.360000610351562 zM59.114637076854706,19.799999237060547 L59.114637076854706,33 L56.3546387553215,33 L56.3546387553215,27.440000534057617 L50.53463524580002,27.440000534057617 L50.53463524580002,33 L47.77464073896408,33 L47.77464073896408,19.799999237060547 L50.53463524580002,19.799999237060547 L50.53463524580002,25.219999313354492 L56.3546387553215,25.219999313354492 L56.3546387553215,19.799999237060547 L59.114637076854706,19.799999237060547 zM68.30463951826096,19.600000381469727 C69.59797447919846,19.600000381469727 70.72129601240158,19.87333106994629 71.67463463544846,20.420000076293945 C72.62797325849533,20.9666690826416 73.36130303144455,21.7499942779541 73.87463921308517,22.770000457763672 C74.3879753947258,23.79000473022461 74.64463585615158,24.99999237060547 74.64463585615158,26.399999618530273 C74.64463585615158,27.800006866455078 74.3879753947258,29.009994506835938 73.87463921308517,30.030000686645508 C73.36130303144455,31.050004959106445 72.62797325849533,31.833330154418945 71.67463463544846,32.380001068115234 C70.72129601240158,32.92667007446289 69.59797447919846,33.20000076293945 68.30463951826096,33.20000076293945 C67.01129692792892,33.20000076293945 65.88464134931564,32.92667007446289 64.92463463544846,32.380001068115234 C63.964631736278534,31.833330154418945 63.227971732616425,31.050004959106445 62.714639365673065,30.030000686645508 C62.20130318403244,29.009994506835938 61.94463890790939,27.800006866455078 61.94463890790939,26.399999618530273 C61.94463890790939,24.99999237060547 62.20130318403244,23.79000473022461 62.714639365673065,22.770000457763672 C63.227971732616425,21.7499942779541 63.964631736278534,20.9666690826416 64.92463463544846,20.420000076293945 C65.88464134931564,19.87333106994629 67.01129692792892,19.600000381469727 68.30463951826096,19.600000381469727 zM68.30463951826096,21.860000610351562 C67.1846291422844,21.860000610351562 66.32130974531174,22.249996185302734 65.7146355509758,23.030000686645508 C65.1079689860344,23.81000328063965 64.80463951826096,24.933326721191406 64.80463951826096,26.399999618530273 C64.80463951826096,27.866674423217773 65.1079689860344,28.9899959564209 65.7146355509758,29.770000457763672 C66.32130974531174,30.550003051757812 67.1846291422844,30.940000534057617 68.30463951826096,30.940000534057617 C69.41130608320236,30.940000534057617 70.26796501874924,30.550003051757812 70.87463921308517,29.770000457763672 C71.48130577802658,28.9899959564209 71.78463524580002,27.866674423217773 71.78463524580002,26.399999618530273 C71.78463524580002,24.933326721191406 71.48130577802658,23.81000328063965 70.87463921308517,23.030000686645508 C70.26796501874924,22.249996185302734 69.41130608320236,21.860000610351562 68.30463951826096,21.860000610351562 zM82.67463463544846,27.940000534057617 L80.1946389079094,27.940000534057617 L80.1946389079094,33 L77.47463768720627,33 L77.47463768720627,19.799999237060547 L83.29463738203049,19.799999237060547 C84.80131310224533,19.799999237060547 85.9779641032219,20.15666389465332 86.82463616132736,20.8700008392334 C87.67130821943283,21.583337783813477 88.0946404337883,22.586660385131836 88.0946404337883,23.8799991607666 C88.0946404337883,24.826671600341797 87.86130303144455,25.619997024536133 87.39463585615158,26.260000228881836 C86.92796868085861,26.90000343322754 86.26131218671799,27.35999870300293 85.39463585615158,27.639999389648438 L88.87463921308517,33 L85.77464073896408,33 L82.67463463544846,27.940000534057617 zM80.1946389079094,25.84000015258789 L82.93463677167892,25.84000015258789 C83.73463982343674,25.84000015258789 84.32463616132736,25.683334350585938 84.70464104413986,25.3700008392334 C85.08463829755783,25.056665420532227 85.27464073896408,24.573335647583008 85.27464073896408,23.920000076293945 C85.27464073896408,23.26666259765625 85.08463829755783,22.783334732055664 84.70464104413986,22.469999313354492 C84.32463616132736,22.156665802001953 83.73463982343674,22 82.93463677167892,22 L80.1946389079094,22 L80.1946389079094,25.84000015258789 zM101.30463951826096,30.780000686645508 L101.30463951826096,33 L91.12463921308517,33 L91.12463921308517,19.799999237060547 L101.02464073896408,19.799999237060547 L101.02464073896408,22.020000457763672 L93.88464134931564,22.020000457763672 L93.88464134931564,25.299999237060547 L99.50463646650314,25.299999237060547 L99.50463646650314,27.420000076293945 L93.88464134931564,27.420000076293945 L93.88464134931564,30.780000686645508 L101.30463951826096,30.780000686645508 zM115.10463494062424,19.799999237060547 C117.17131584882736,19.799999237060547 118.7712990641594,20.373327255249023 119.90463799238205,21.520000457763672 C121.0379769206047,22.666671752929688 121.60463494062424,24.293323516845703 121.60463494062424,26.399999618530273 C121.60463494062424,28.506677627563477 121.0379769206047,30.13332748413086 119.90463799238205,31.280000686645508 C118.7712990641594,32.426673889160156 117.17131584882736,33 115.10463494062424,33 L110.00463646650314,33 L110.00463646650314,19.799999237060547 L115.10463494062424,19.799999237060547 zM114.9646355509758,30.799999237060547 C116.21797722578049,30.799999237060547 117.16129845380783,30.423337936401367 117.79463738203049,29.670000076293945 C118.42797631025314,28.916662216186523 118.74463433027267,27.82667350769043 118.74463433027267,26.399999618530273 C118.74463433027267,24.973325729370117 118.42797631025314,23.883337020874023 117.79463738203049,23.1299991607666 C117.16129845380783,22.376663208007812 116.21797722578049,22 114.9646355509758,22 L112.76463860273361,22 L112.76463860273361,30.799999237060547 L114.9646355509758,30.799999237060547 zM130.13464134931564,19.600000381469727 C131.42797631025314,19.600000381469727 132.55129784345627,19.87333106994629 133.50463646650314,20.420000076293945 C134.45797508955002,20.9666690826416 135.1912972331047,21.7499942779541 135.70463341474533,22.770000457763672 C136.21796959638596,23.79000473022461 136.47463768720627,24.99999237060547 136.47463768720627,26.399999618530273 C136.47463768720627,27.800006866455078 136.21796959638596,29.009994506835938 135.70463341474533,30.030000686645508 C135.1912972331047,31.050004959106445 134.45797508955002,31.833330154418945 133.50463646650314,32.380001068115234 C132.55129784345627,32.92667007446289 131.42797631025314,33.20000076293945 130.13464134931564,33.20000076293945 C128.84129112958908,33.20000076293945 127.71464318037033,32.92667007446289 126.75463646650314,32.380001068115234 C125.79462975263596,31.833330154418945 125.05797356367111,31.050004959106445 124.54463738203049,30.030000686645508 C124.03130120038986,29.009994506835938 123.77464073896408,27.800006866455078 123.77464073896408,26.399999618530273 C123.77464073896408,24.99999237060547 124.03130120038986,23.79000473022461 124.54463738203049,22.770000457763672 C125.05797356367111,21.7499942779541 125.79462975263596,20.9666690826416 126.75463646650314,20.420000076293945 C127.71464318037033,19.87333106994629 128.84129112958908,19.600000381469727 130.13464134931564,19.600000381469727 zM130.13464134931564,21.860000610351562 C129.01463097333908,21.860000610351562 128.1513039469719,22.249996185302734 127.54463738203049,23.030000686645508 C126.93797081708908,23.81000328063965 126.63464134931564,24.933326721191406 126.63464134931564,26.399999618530273 C126.63464134931564,27.866674423217773 126.93797081708908,28.9899959564209 127.54463738203049,29.770000457763672 C128.1513039469719,30.550003051757812 129.01463097333908,30.940000534057617 130.13464134931564,30.940000534057617 C131.24131554365158,30.940000534057617 132.09797447919846,30.550003051757812 132.70463341474533,29.770000457763672 C133.31130760908127,28.9899959564209 133.6146370768547,27.866674423217773 133.6146370768547,26.399999618530273 C133.6146370768547,24.933326721191406 133.31130760908127,23.81000328063965 132.70463341474533,23.030000686645508 C132.09797447919846,22.249996185302734 131.24131554365158,21.860000610351562 130.13464134931564,21.860000610351562 zM145.00463646650314,19.600000381469727 C146.29797142744064,19.600000381469727 147.42129296064377,19.87333106994629 148.37463158369064,20.420000076293945 C149.32797020673752,20.9666690826416 150.06130760908127,21.7499942779541 150.5746437907219,22.770000457763672 C151.08797997236252,23.79000473022461 151.34463280439377,24.99999237060547 151.34463280439377,26.399999618530273 C151.34463280439377,27.800006866455078 151.08797997236252,29.009994506835938 150.5746437907219,30.030000686645508 C150.06130760908127,31.050004959106445 149.32797020673752,31.833330154418945 148.37463158369064,32.380001068115234 C147.42129296064377,32.92667007446289 146.29797142744064,33.20000076293945 145.00463646650314,33.20000076293945 C143.71130150556564,33.20000076293945 142.58463829755783,32.92667007446289 141.62463158369064,32.380001068115234 C140.66464012861252,31.833330154418945 139.92797631025314,31.050004959106445 139.41464012861252,30.030000686645508 C138.9013039469719,29.009994506835938 138.64463585615158,27.800006866455078 138.64463585615158,26.399999618530273 C138.64463585615158,24.99999237060547 138.9013039469719,23.79000473022461 139.41464012861252,22.770000457763672 C139.92797631025314,21.7499942779541 140.66464012861252,20.9666690826416 141.62463158369064,20.420000076293945 C142.58463829755783,19.87333106994629 143.71130150556564,19.600000381469727 145.00463646650314,19.600000381469727 zM145.00463646650314,21.860000610351562 C143.88462609052658,21.860000610351562 143.02131432294846,22.249996185302734 142.41464012861252,23.030000686645508 C141.80796593427658,23.81000328063965 141.50463646650314,24.933326721191406 141.50463646650314,26.399999618530273 C141.50463646650314,27.866674423217773 141.80796593427658,28.9899959564209 142.41464012861252,29.770000457763672 C143.02131432294846,30.550003051757812 143.88462609052658,30.940000534057617 145.00463646650314,30.940000534057617 C146.11131066083908,30.940000534057617 146.96796959638596,30.550003051757812 147.5746437907219,29.770000457763672 C148.18130272626877,28.9899959564209 148.4846321940422,27.866674423217773 148.4846321940422,26.399999618530273 C148.4846321940422,24.933326721191406 148.18130272626877,23.81000328063965 147.5746437907219,23.030000686645508 C146.96796959638596,22.249996185302734 146.11131066083908,21.860000610351562 145.00463646650314,21.860000610351562 zM159.37463158369064,27.940000534057617 L156.89463585615158,27.940000534057617 L156.89463585615158,33 L154.17463463544846,33 L154.17463463544846,19.799999237060547 L159.9946419596672,19.799999237060547 C161.50131005048752,19.799999237060547 162.67796105146408,20.15666389465332 163.52464073896408,20.8700008392334 C164.37130516767502,21.583337783813477 164.79464501142502,22.586660385131836 164.79464501142502,23.8799991607666 C164.79464501142502,24.826671600341797 164.56130760908127,25.619997024536133 164.09463280439377,26.260000228881836 C163.62797325849533,26.90000343322754 162.96130150556564,27.35999870300293 162.09463280439377,27.639999389648438 L165.5746437907219,33 L162.47463768720627,33 L159.37463158369064,27.940000534057617 zM156.89463585615158,25.84000015258789 L159.63464134931564,25.84000015258789 C160.43464440107346,25.84000015258789 161.02464073896408,25.683334350585938 161.40463036298752,25.3700008392334 C161.78463524580002,25.056665420532227 161.97463768720627,24.573335647583008 161.97463768720627,23.920000076293945 C161.97463768720627,23.26666259765625 161.78463524580002,22.783334732055664 161.40463036298752,22.469999313354492 C161.02464073896408,22.156665802001953 160.43464440107346,22 159.63464134931564,22 L156.89463585615158,22 L156.89463585615158,25.84000015258789 z" id="Chore-Door" fill="#400711" stroke="#400711"/>
                <path d="M26.639442145824432,51.25074768066406 L27.615470588207245,52.238182067871094 L37.73690575361252,62.323509216308594 L38.71293419599533,63.310943603515625 L36.359815299510956,66.80592346191406 L36.13268059492111,66.59257507324219 L34.63537377119064,65.09811401367188 C34.86250847578049,64.27081298828125 35.22365349531174,63.55043411254883 35.89223259687424,62.94980239868164 C36.012456595897675,62.8428840637207 36.05284661054611,62.656612396240234 35.985845267772675,62.50978088378906 C35.91884392499924,62.36247253417969 35.74540489912033,62.26933670043945 35.584790885448456,62.29642105102539 C35.50448387861252,62.30925369262695 35.43748253583908,62.33633804321289 35.38426750898361,62.38956069946289 C34.70237511396408,62.99019241333008 34.30132073163986,63.7243537902832 34.03378838300705,64.49748229980469 L32.215255439281464,62.669918060302734 C32.42909210920334,62.17620086669922 32.576400458812714,61.76279067993164 33.09767693281174,61.37551498413086 C33.23119896650314,61.282379150390625 33.28489464521408,61.08232498168945 33.23119896650314,60.93501663208008 C33.164197623729706,60.774879455566406 33.00359123945236,60.667964935302734 32.830144584178925,60.69504928588867 C32.76314324140549,60.69504928588867 32.69661682844162,60.73496627807617 32.62961548566818,60.774879455566406 C32.08125275373459,61.18876647949219 31.827506721019745,61.6691780090332 31.62697571516037,62.095420837402344 L30.022758185863495,60.46791076660156 L31.97481507062912,58.5201301574707 C32.09503906965256,58.399906158447266 32.135429084300995,58.19985580444336 32.05512207746506,58.053497314453125 C31.97481507062912,57.90713882446289 31.787589728832245,57.826358795166016 31.62745636701584,57.866275787353516 C31.5604550242424,57.87957763671875 31.4939267039299,57.91949462890625 31.440231025218964,57.97319030761719 L29.47486847639084,59.93428039550781 L27.843558967113495,58.320552825927734 C28.28500336408615,58.12049865722656 28.753059089183807,57.86674880981445 29.180724799633026,57.32028579711914 C29.3679501414299,57.09314727783203 29.140815436840057,56.67973709106445 28.846198737621307,56.70634841918945 C28.73928040266037,56.71965408325195 28.645667731761932,56.77334976196289 28.578666388988495,56.853179931640625 C28.177612006664276,57.37398147583008 27.763251960277557,57.52033996582031 27.2685849070549,57.73417282104492 L25.450050055980682,55.933223724365234 C26.22555512189865,55.666168212890625 26.94735687971115,55.25275802612305 27.548942267894745,54.57229232788086 C27.74947327375412,54.35940933227539 27.575553596019745,53.945526123046875 27.281409919261932,53.945526123046875 C27.174499213695526,53.945526123046875 27.06758087873459,53.98591613769531 27.00057953596115,54.06574630737305 C26.398994147777557,54.74620819091797 25.67671173810959,55.105926513671875 24.84799164533615,55.333065032958984 L23.336906135082245,53.825775146484375 L23.12306946516037,53.61241912841797 L26.639442145824432,51.25074768066406 zM28.564887702465057,49.10291290283203 C28.631889045238495,49.08960723876953 28.738807380199432,49.10291290283203 28.778724372386932,49.15613555908203 L28.84572571516037,49.20935821533203 L28.85902374982834,49.22266387939453 L29.313781440258026,49.67646026611328 L40.29054802656174,60.628997802734375 L40.75860375165939,61.09563064575195 C40.77190941572189,61.09563064575195 40.77190941572189,61.10893630981445 40.78521507978439,61.12271499633789 L40.82560509443283,61.16263198852539 L40.82560509443283,61.17593765258789 C40.89260643720627,61.22963333129883 40.90591210126877,61.3892936706543 40.86552208662033,61.442989349365234 L39.70274132490158,63.19071960449219 C39.68944329023361,63.19071960449219 39.70274132490158,63.19071960449219 39.70274132490158,63.20402526855469 C39.68944329023361,63.20402526855469 39.67565697431564,63.20402526855469 39.66235131025314,63.19071960449219 L39.502690970897675,63.017276763916016 C39.489385306835175,63.00397491455078 39.47560662031174,62.99066925048828 39.46230095624924,62.97736358642578 L38.27243584394455,61.78987503051758 L28.151000678539276,51.704551696777344 L27.02766388654709,50.584068298339844 C27.02766388654709,50.584068298339844 27.01435822248459,50.570762634277344 27.01435822248459,50.557456970214844 C26.97444123029709,50.504234313964844 26.93405121564865,50.463844299316406 26.880355536937714,50.437232971191406 L26.760139167308807,50.303707122802734 L26.733527839183807,50.277095794677734 C26.733527839183807,50.290401458740234 26.720222175121307,50.290401458740234 26.746833503246307,50.2637939453125 L28.511665046215057,49.11621856689453 C28.52449768781662,49.10291290283203 28.538276374340057,49.10291290283203 28.564887702465057,49.10291290283203 L28.564887702465057,49.10291290283203 zM40.58421105146408,47.36896514892578 C40.59751671552658,47.35565948486328 40.704908072948456,47.36896514892578 40.731519401073456,47.39557647705078 C40.75860375165939,47.42218780517578 40.784742057323456,47.44879913330078 40.81182640790939,47.462100982666016 L41.19957512617111,47.862205505371094 L42.12190788984299,48.76933288574219 L42.4426628947258,49.08960723876953 C42.46974724531174,49.16944122314453 42.52296990156174,49.24974822998047 42.603276908397675,49.28966522216797 L42.603276908397675,49.39657974243164 L42.16182488203049,50.06373596191406 L39.90231865644455,47.82276916503906 L40.58421105146408,47.36896514892578 zM35.55770653486252,45.38126754760742 L35.8385369181633,45.38126754760742 C36.22629326581955,45.421180725097656 36.58743065595627,45.581321716308594 36.84117668867111,45.83506774902344 L38.65971153974533,47.649322509765625 L39.03415459394455,48.00951385498047 L39.04746025800705,48.02281951904297 L40.50438469648361,49.47688293457031 L41.94846886396408,50.93095016479492 C41.96177452802658,50.94425582885742 41.98885887861252,50.95756149291992 42.00168389081955,50.97086715698242 L42.3362175822258,51.304447174072266 L44.15427178144455,53.11870193481445 C44.66225212812424,53.62525177001953 44.75633782148361,54.59938049316406 44.354802787303925,55.20001220703125 L40.97244042158127,60.2293701171875 L40.82513207197189,60.09584045410156 L40.81182640790939,60.09584045410156 L29.848365485668182,49.15660858154297 L29.714835822582245,49.00978088378906 L34.76889580488205,45.63454055786133 C34.996038138866425,45.488182067871094 35.27687615156174,45.407875061035156 35.55770653486252,45.38126754760742 L35.55770653486252,45.38126754760742 zM59.91093224287033,24.663206100463867 C59.99123924970627,24.663206100463867 60.058232963085175,24.689817428588867 60.111455619335175,24.743038177490234 L60.99387902021408,25.61025047302246 C61.10078972578049,25.717166900634766 61.10078972578049,25.890132904052734 60.99387902021408,26.01035499572754 L42.81710594892502,48.42292785644531 L42.65649193525314,48.249481201171875 L41.72038048505783,47.328575134277344 L41.56023949384689,47.15513229370117 L59.70992821455002,24.742563247680664 C59.77740257978439,24.689817428588867 59.84393090009689,24.663206100463867 59.91093224287033,24.663206100463867 L59.91093224287033,24.663206100463867 zM59.91093224287033,23.916215896606445 C59.64340752363205,23.916215896606445 59.38918083906174,24.02313232421875 59.18864983320236,24.22318458557129 L40.97244042158127,46.675193786621094 C40.89213341474533,46.63528060913086 40.81182640790939,46.62197494506836 40.731519401073456,46.60866928100586 C40.54429405927658,46.59536361694336 40.344243705272675,46.63528060913086 40.16985100507736,46.75550079345703 L39.367742240428925,47.27582931518555 L39.20760124921799,47.102386474609375 L37.38906639814377,45.30143737792969 C36.98801201581955,44.914634704589844 36.45342797040939,44.67466735839844 35.9050652384758,44.6209716796875 C35.37048119306564,44.5677490234375 34.80881279706955,44.687496185302734 34.34075707197189,44.994468688964844 L29.13986176252365,48.47614669799805 C29.019637763500214,48.39631652832031 28.87232941389084,48.342620849609375 28.725501716136932,48.329315185546875 C28.49788635969162,48.302703857421875 28.284049689769745,48.355926513671875 28.0835263133049,48.47614669799805 L26.33199280500412,49.65032958984375 C26.144767463207245,49.77007293701172 25.9974667429924,49.997215270996094 25.98463410139084,50.223876953125 C25.97132843732834,50.38401412963867 26.02455109357834,50.557456970214844 26.118163764476776,50.704288482666016 L22.320960700511932,53.252227783203125 C22.147041022777557,53.37245178222656 22.120429694652557,53.666114807128906 22.267738044261932,53.82625198364258 L22.816100776195526,54.359886169433594 L24.44741028547287,55.98739242553711 C24.46071594953537,56.00069808959961 24.46071594953537,56.00069808959961 24.47402161359787,56.01400375366211 L35.611402213573456,67.11337280273438 L36.14598625898361,67.65983581542969 C36.30660027265549,67.80714416503906 36.60073632001877,67.78005981445312 36.720960319042206,67.60661315917969 L39.27507561445236,63.83174514770508 C39.4086052775383,63.92488098144531 39.595830619335175,63.96479797363281 39.75596398115158,63.95149230957031 C39.98357933759689,63.938663482666016 40.19740837812424,63.80466079711914 40.330938041210175,63.618385314941406 L41.49419182538986,61.85735321044922 C41.70802849531174,61.523773193359375 41.69472283124924,61.12366485595703 41.49419182538986,60.80339050292969 L44.983953177928925,55.61389923095703 C45.59883660078049,54.679683685302734 45.47861260175705,53.37245178222656 44.68980950117111,52.58554458618164 L42.87127465009689,50.77128982543945 L42.69783562421799,50.61162567138672 L43.23241966962814,49.81093978881836 C43.40633171796799,49.55718994140625 43.420118033885956,49.263999938964844 43.29942101240158,48.9969482421875 L61.51610344648361,26.544464111328125 C61.9176384806633,26.144357681274414 61.9176384806633,25.477197647094727 61.51610344648361,25.07709312438965 L60.647466361522675,24.209880828857422 C60.445989310741425,24.00935173034668 60.17845696210861,23.916215896606445 59.91093224287033,23.916215896606445 L59.91093224287033,23.916215896606445 z" id="Fill-1" stroke="#400711" stroke-width="0.5" transform="rotate(-2, 21.3596, 22.9179) translate(-20.635, -22.9179)" fill="#400711"/>
            </g>
        </g>
    </g></g></svg>